<?xml version="1.0" encoding="UTF-8"?>
<svg id="Layer_1" xmlns="http://www.w3.org/2000/svg" version="1.1" viewBox="0 0 128 128">
  <!-- Generator: Adobe Illustrator 29.8.2, SVG Export Plug-In . SVG Version: 2.1.1 Build 3)  -->
  <defs>
    <style>
      .st0 {
        fill: #dcec00;
      }
    </style>
  </defs>
  <rect width="128" height="128"/>
  <g>
    <path class="st0" d="M10.2,47.1v12.4s.2.2.2.2h14.6c0-.2.1-.4.1-.4v-12.1c2.1-.3,4.3,0,6.4-.1l.4.2v33.3c0,.3-.2.4-.5.5-1.2.2-4.3.1-5.6,0s-.5,0-.7-.1v-14.8c0,0-.2-.3-.1-.4h-14.6s-.2.2-.2.2v15H3.3v-33.5c0-.2.4-.3.6-.3,1.2-.2,4.3-.1,5.6,0s.5,0,.7.1Z"/>
    <path class="st0" d="M124.2,47v5.4c.2.2-.3.4-.4.4h-15s-.2.2-.2.2v7.4c.2,0,.4.1.4.1h13.2v5.4s-.2.2-.2.2h-13.3s-.2.2-.2.2v8.6s.2.2.2.2h15.2c0,0,.7.2.7.3v5.4h-22.9c0-.9,0-1.7,0-2.6s-.1-.6-.1-.9c-.3-10.1.3-20.2.2-30.2,0,0,.3-.1.3-.1h22.1Z"/>
    <path class="st0" d="M77.8,68.4v12.2c0,.2-.4.3-.6.3-1.1.1-4.7.1-5.8,0s-.4-.2-.5-.6v-32.6c0-.4,0-.8.5-.8,7.1.7,18.8-2.5,22.9,5.2s1.7,9.1-.9,12.3c-3.9,4.8-10.1,3.8-15.6,3.9ZM77.8,62.9c0,.2,4.5.2,4.9.1,2.3-.1,4.7-.5,5.6-2.9s.5-5.2-1.4-6.6-1.8-.9-2.2-.9h-6.9v10.3Z"/>
    <path class="st0" d="M43.3,47c.1,0,.4.2.4.3l7.4,12.7c.2.2.6.2.8,0l7.3-12.8h7.1s0,.5,0,.5l-11.2,19.5c0,.2-.3.7-.3.8v12.9c-1.9,0-4,.3-5.9.1s-.9,0-1-.8c-.3-4.1.3-8.5,0-12.6-3.4-6.6-7.6-12.8-11-19.3s-.7-1.2-.3-1.2h6.7Z"/>
  </g>
</svg>