<?xml version="1.0" encoding="UTF-8"?>
<svg id="Layer_1" xmlns="http://www.w3.org/2000/svg" version="1.1" viewBox="0 0 800 266.7">
  <!-- Generator: Adobe Illustrator 29.8.2, SVG Export Plug-In . SVG Version: 2.1.1 Build 3)  -->
  <defs>
    <style>
      .st0 {
        fill: #dcec00;
      }
    </style>
  </defs>
  <path class="st0" d="M75.2,29.4v76.2c0,0,1.1,1.2,1.2,1.2h90.2c-.4-1,.8-2.3.8-2.7V29.4c13-1.6,26.3-.4,39.4-.8l2.4,1.5.4,205.1c-.4,2.1-1.5,2.5-3.5,2.8-7.6,1-26.5.6-34.5,0-1.5-.1-2.8-.5-4.3-.8v-91c0-.4-1.2-1.7-.8-2.7h-90.2c0,0-1.2,1.1-1.2,1.2v92.6h-42.2V30.6c0-1,2.4-1.9,3.5-2,7.5-1,26.5-.6,34.5,0s2.8.5,4.3.8Z"/>
  <path class="st0" d="M777.6,28.6l.8,33.2c.2,1.3-2.8,2.7-3.5,2.7h-92.2c0,0-1.2,1.1-1.2,1.2v45.7c1-.4,2.3.8,2.7.8h81.6v33.2c0,0-1.1,1.2-1.2,1.2h-82c0,0-1.2,1.1-1.2,1.2v53.1c0,0,1.1,1.2,1.2,1.2h93.8c.5,0,4.3,1.5,4.3,2v33.2h-141.3c-.4-5.4.1-10.8,0-16s-.8-3.6-.8-5.4c-1.7-62.1,1.8-124.2.9-186.2.6-.1,1.5-.9,1.8-.9h136.3Z"/>
  <path class="st0" d="M491.6,160.7v75.4c0,1-2.4,1.9-3.5,2-6.7.9-29.3.8-36,0s-2.7-1.2-3.3-3.8l-.2-200.6c0-2.4.6-5.2,3.5-5.1,43.9,4.3,115.6-15.5,141.2,32.3,11.7,21.8,10.3,56.4-5.6,75.9-23.9,29.4-62.2,23.2-96.1,23.8ZM491.6,126.3c0,1.5,27.7.9,30.1.8,14.2-.7,28.9-2.9,34.3-18,4.5-12.5,2.9-32.2-8.6-40.6s-11.2-5.5-13.3-5.5h-42.6v63.3Z"/>
  <path class="st0" d="M279.5,28.6c.6.1,2.2,1.4,2.7,2l45.7,78.5c1.4,1.3,4,1.3,5-.5l44.8-79,43.5-.2-.4,3.1-68.8,120.3c-.4.9-1.9,4.6-1.9,5.1v79.3c-11.7.4-24.7,1.7-36.4.8-4.6-.4-5.5-.4-5.9-5.1-1.8-25.2,1.9-52.3-.5-77.6-20.7-40.4-46.8-78.9-67.6-119.2-.5-1-4.5-7.6-1.8-7.6h41.4Z"/>
</svg>